<svg width="13" height="24" viewBox="0 0 13 24" fill="none" xmlns="http://www.w3.org/2000/svg">
<path fill-rule="evenodd" clip-rule="evenodd" d="M1.28372 22.5311C1.31078 22.3399 1.53239 22.1351 1.71316 22.0197C2.59426 21.4565 3.55142 21.0069 4.37183 20.3611C7.02917 18.269 8.60419 15.5149 8.69036 11.9374C8.71469 10.9216 8.34384 10.6679 7.49664 11.0636C5.0509 12.206 2.42087 11.5362 1.01731 9.41319C-0.513346 7.09768 -0.297793 4.01478 1.53617 1.9921C3.87879 -0.591376 7.73337 -0.668563 10.3914 1.7986C11.9836 3.27658 12.7402 5.18497 12.929 7.35552C13.5614 14.6274 9.93932 20.6212 3.34711 23.2543C2.69466 23.5147 2.02569 23.7287 1.26343 24C1.26343 23.4447 1.2203 22.9795 1.28372 22.5311Z" fill="black"/>
</svg>
