<svg width="24" height="24" viewBox="0 0 24 24" fill="none" xmlns="http://www.w3.org/2000/svg">
<path d="M15.0738 14.9969C9.44919 20.6237 4.08413 22.4419 2.87272 21.1434C2.52655 20.7971 2.52655 20.2777 2.52655 19.8449C2.52655 17.5075 4.77647 13.0062 9.53579 8.59095C10.0551 8.15809 10.0551 7.37895 9.62238 6.85959C9.18961 6.34021 8.41076 6.34021 7.89159 6.77305C6.76672 7.81182 5.81485 8.85063 4.94947 9.88955C2.52654 6.16724 2.00732 3.48352 2.78605 2.61793C3.73793 1.6657 7.28583 2.44485 11.4396 5.5612C12.7376 6.51343 14.0355 7.63873 15.247 8.85083C16.1989 9.80305 17.1508 10.8419 17.9297 11.8807C17.0644 13.0061 16.1125 13.9583 15.074 14.9971L15.0738 14.9969ZM21.2178 2.79123C22.0832 3.65691 21.4775 6.42719 19.2276 9.97614C18.4487 9.02391 17.67 8.15828 16.8046 7.20606C15.9393 6.34034 14.9874 5.47464 14.0356 4.6956C17.6702 2.35828 20.3526 1.92555 21.2178 2.79123ZM22.9486 1.05984C20.9584 -0.931182 16.8045 -0.0654724 12.0452 3.22409C7.28583 -0.0655683 3.04554 -0.931153 1.05549 1.05984C-0.934784 3.05087 -0.0694004 7.11955 3.30541 11.9674C1.31513 14.824 0.103611 17.5941 0.103611 19.845C0.103611 21.4031 0.709324 22.3554 1.14202 22.8747C1.92087 23.6539 2.87274 24 4.08416 24C7.7187 24 12.824 20.797 16.8047 16.8151C17.6701 15.9495 18.5354 14.9971 19.2277 14.0449C21.564 17.6809 22.0833 20.3643 21.2179 21.2298C20.5257 21.9223 18.5353 21.6627 16.199 20.4507C15.5933 20.1909 14.9009 20.3642 14.5549 20.9701C14.2088 21.576 14.4684 22.2687 15.0741 22.6148C16.8913 23.5671 18.622 23.9999 19.9201 23.9999C21.1316 23.9999 22.0835 23.6536 22.8622 22.8746C24.8525 20.8836 23.9872 16.7282 20.6988 11.9671C23.7277 7.72542 25.112 3.31058 22.9488 1.05981L22.9486 1.05984Z" fill="url(#paint0_radial_832_2788)"/>
<path d="M15.1875 12.375C15.1875 14.3426 13.5926 15.9375 11.6251 15.9375C9.6574 15.9375 8.0625 14.3426 8.0625 12.375C8.0625 10.4074 9.6574 8.8125 11.6251 8.8125C13.5926 8.8125 15.1875 10.4074 15.1875 12.375Z" fill="url(#paint1_radial_832_2788)"/>
<defs>
<radialGradient id="paint0_radial_832_2788" cx="0" cy="0" r="1" gradientUnits="userSpaceOnUse" gradientTransform="translate(12.2446 12) rotate(-90) scale(13.125 13.9015)">
<stop stop-color="#FC0000"/>
<stop offset="1" stop-color="#FF7474"/>
</radialGradient>
<radialGradient id="paint1_radial_832_2788" cx="0" cy="0" r="1" gradientUnits="userSpaceOnUse" gradientTransform="translate(11.625 12.375) rotate(90) scale(3.5625)">
<stop stop-color="#FF7474"/>
<stop offset="1" stop-color="#FC0000"/>
</radialGradient>
</defs>
</svg>
