<svg width="48" height="48" viewBox="0 0 48 48" fill="none" xmlns="http://www.w3.org/2000/svg">
<path d="M34.2267 14.3888C33.96 13.5775 33.2133 13 32.3333 13H17.6667C16.7867 13 16.0533 13.5775 15.7733 14.3888L13 22.625V33.625C13 34.3813 13.6 35 14.3333 35H15.6667C16.4 35 17 34.3813 17 33.625V32.25H33V33.625C33 34.3813 33.6 35 34.3333 35H35.6667C36.4 35 37 34.3813 37 33.625V22.625L34.2267 14.3888ZM17.6667 28.125C16.56 28.125 15.6667 27.2037 15.6667 26.0625C15.6667 24.9213 16.56 24 17.6667 24C18.7733 24 19.6667 24.9213 19.6667 26.0625C19.6667 27.2037 18.7733 28.125 17.6667 28.125ZM32.3333 28.125C31.2267 28.125 30.3333 27.2037 30.3333 26.0625C30.3333 24.9213 31.2267 24 32.3333 24C33.44 24 34.3333 24.9213 34.3333 26.0625C34.3333 27.2037 33.44 28.125 32.3333 28.125ZM15.6667 21.25L17.6667 15.0625H32.3333L34.3333 21.25H15.6667Z" fill="black"/>
</svg>
