<svg width="48" height="48" viewBox="0 0 48 48" fill="none" xmlns="http://www.w3.org/2000/svg">
<path d="M35.4267 27.8133L37.3334 25.9067L35.4267 24L30.6667 28.76L19.2401 17.3333L24.0001 12.5733L22.0934 10.6667L20.1867 12.5733L18.2801 10.6667L15.4267 13.52L13.5201 11.6133L11.6134 13.52L13.5201 15.4267L10.6667 18.28L12.5734 20.1867L10.6667 22.0933L12.5734 24L17.3334 19.24L28.7601 30.6667L24.0001 35.4267L25.9067 37.3333L27.8134 35.4267L29.7201 37.3333L32.5734 34.48L34.4801 36.3867L36.3867 34.48L34.4801 32.5733L37.3334 29.72L35.4267 27.8133Z" fill="black"/>
</svg>
