<svg width="354" height="289" viewBox="0 0 354 289" fill="none" xmlns="http://www.w3.org/2000/svg">
<g id="Honda">
<path id="Vector" d="M86.7234 264.08C86.7234 264.08 93.5834 265.25 104.943 265.73C116.783 266.43 122.213 266.43 122.213 266.43C127.173 247.76 133.103 222.01 139.953 210.91C145.633 201.93 154.153 200.98 159.123 200.28C166.693 199.33 173.323 199.11 176.163 199.11C179.233 199.11 185.633 199.11 193.213 200.28C198.173 200.98 206.693 201.93 212.383 210.91C219.233 222.01 225.393 247.77 230.123 266.43C230.123 266.43 235.333 266.43 247.163 265.73C258.523 265.03 265.383 264.08 265.383 264.08C268.923 221.79 272.963 166.02 275.083 132.7C277.203 101.27 281.933 26.61 281.933 26.61C277.923 26.14 273.883 25.66 269.153 25.44C265.613 25.21 257.563 24.97 257.563 24.97C249.513 61.13 246.203 77.9 239.573 103.89C233.193 128.93 228.213 152.32 219.683 163.67C211.163 175.24 199.573 177.61 191.773 178.55C187.763 179.02 184.673 179.25 175.923 179.25C167.173 179.25 164.083 179.02 160.073 178.55C152.273 177.6 140.663 175.24 132.163 163.67C123.643 152.32 118.683 128.93 112.523 103.89C105.893 77.66 102.583 61.13 94.5334 24.97C94.5334 24.97 86.4834 25.2 82.9434 25.44C77.9834 25.67 74.1934 26.14 70.1634 26.61C70.1634 26.61 74.8934 101.05 77.0134 132.7C79.1334 165.78 83.1734 221.77 86.7134 264.08H86.7333H86.7234Z" fill="white"/>
<path id="Vector_2" d="M20.1634 68.44C23.6934 38.6 38.3534 23.68 69.7734 18.22C84.4234 15.62 104.253 13.73 122.913 12.78C138.033 11.83 162.593 11.36 176.523 11.36C190.233 11.13 215.033 11.83 229.913 12.78C248.573 13.73 268.423 15.62 283.053 18.22C314.473 23.91 329.103 38.83 332.883 68.44C335.473 88.1 335.723 125.05 334.053 148.02C331.213 185.92 327.913 208.67 323.183 225.01C318.933 239.46 313.733 248.93 306.173 255.8C293.413 267.4 275.943 269.77 265.543 271.44C243.353 274.76 205.783 275.93 176.503 275.93C147.223 275.93 109.653 274.76 87.4634 271.44C77.0634 269.79 59.5934 267.42 46.8334 255.8C39.2734 248.94 34.0734 239.21 29.8234 225.01C25.0934 208.67 21.5634 185.92 18.9534 148.02C17.3134 125.29 17.5333 88.32 20.1233 68.44H20.1634ZM4.58336 180.71C5.53336 190.42 9.53333 219.33 14.7333 234.25C21.8233 254.86 28.1933 260.77 35.7533 266.93C49.4633 278.06 72.1234 281.62 76.8534 282.57C102.353 287.06 153.853 288.01 176.763 288.01C199.673 288.01 251.173 287.31 276.673 282.57C281.403 281.62 304.063 278.3 317.773 266.93C325.333 260.77 331.703 254.85 338.793 234.25C343.993 219.33 348.003 190.19 348.943 180.71C350.363 166.74 352.953 146.36 353.423 116.29C353.193 98.05 352.723 81.24 351.533 68.44C346.803 21.07 315.163 11.11 287.523 6.39001C273.593 4.02001 248.783 2.11998 232.963 1.41998C219.033 0.469983 186.443 0 176.513 0C166.583 0 133.993 0.469983 120.063 1.41998C104.243 2.11998 79.4333 4.02001 65.5033 6.39001C37.8633 11.13 6.21334 21.08 1.49334 68.44C0.0733382 81.46 -0.146645 98.28 0.0733551 116.29C0.543355 146.38 3.13334 166.51 4.55334 180.71H4.57336H4.58336Z" fill="white"/>
</g>
</svg>
