<svg width="432" height="221" viewBox="0 0 432 221" fill="none" xmlns="http://www.w3.org/2000/svg">
<path id="Hyundai" d="M359.47 175.09C340.22 184.53 317.73 191.85 293.19 196.76C288.36 197.72 285.14 191.94 288.53 188.39C328.66 146.37 360.24 77.74 369.28 56.93C370.51 54.13 373.97 53.02 376.56 54.68C402.06 70.88 415.88 90.16 415.88 110.13C415.88 134.17 395.86 157.23 359.48 175.09H359.47ZM16.13 110.12C16.13 86.08 36.15 63.02 72.53 45.16C91.28 35.95 113.1 28.81 136.89 23.9C141.67 22.92 144.94 28.62 141.62 32.19C101.56 75.43 74.28 143.47 66.21 165.14C65.13 168.06 61.62 169.34 58.93 167.73C31.2 151.12 16.13 130.98 16.13 110.13V110.12ZM227.56 203.54C226.33 203.88 225.06 204.07 223.76 204.09C221.19 204.14 218.59 204.16 216 204.16C175.96 204.16 137.8 198.53 105.19 188.08C102.43 187.19 100.53 184.63 100.53 181.73C100.53 179.36 101.8 177.15 103.87 175.98C123.84 164.5 227.8 106.39 252.99 125.98C276.52 144.25 245.54 185.89 235.21 198.57C233.24 200.97 230.57 202.72 227.57 203.53V203.55L227.56 203.54ZM327.6 32.41C331.23 33.58 332.26 38.24 329.45 40.85C328.01 42.19 326.33 43.63 324.38 45.12C308.81 57.18 262.38 78.58 235.53 87.17C208.69 95.73 164.39 104.57 170.04 70.58C173.33 50.76 186.55 33.76 197.03 23.02C201.28 18.66 207.1 16.16 213.2 16.12H215.99C256.34 16.12 294.81 21.8 327.59 32.42L327.6 32.41ZM366.58 30.73C326.23 10.91 272.74 0 216 0C159.26 0 105.77 10.91 65.42 30.73C23.24 51.44 0 79.63 0 110.12C0 140.61 23.24 168.83 65.42 189.54C105.77 209.36 159.27 220.27 216 220.27C272.73 220.27 326.23 209.36 366.58 189.54C408.76 168.83 432 140.64 432 110.12C432 79.6 408.76 51.41 366.58 30.73Z" fill="white"/>
</svg>
