<svg width="303" height="270" viewBox="0 0 303 270" fill="none" xmlns="http://www.w3.org/2000/svg">
<path id="SEAT" d="M100.23 0.797646C157.16 -1.21235 214.16 0.787539 270.99 4.43754C276.97 4.95754 283.04 4.91765 288.93 6.17765C292.12 6.94765 295.56 8.16753 297.43 11.0575C299.13 14.2075 299.17 17.8876 299.61 21.3576C300.96 38.4076 301.36 55.5376 302.63 72.5976C300.17 72.8976 297.71 72.5175 295.24 72.4375C251.4 70.1675 207.53 68.2776 163.63 68.2276C140.89 68.2876 118.12 68.0676 95.4 69.1777C89.89 69.9876 83.66 71.8276 80.48 76.7376C97.67 79.7876 114.82 83.0875 132.01 86.1975C188.96 96.8575 245.95 107.278 302.9 117.928C302.85 128.728 302.87 139.528 302.9 150.328C270.88 145.028 238.91 139.308 206.9 133.838C138.05 121.968 69.22 109.938 0.339966 98.1875C0.479966 86.1975 0.98999 74.2176 1.23999 62.2176C1.66999 52.7176 1.39993 43.0876 3.54993 33.7676C4.98993 27.1876 7.67003 20.5676 12.66 15.8676C21.27 7.34759 33.7199 4.9476 45.3099 3.7476C63.5699 2.0576 81.92 1.49755 100.24 0.827553L100.23 0.797646ZM0.0100098 113.938C98.65 132.138 197.26 150.648 295.89 168.948C298.05 169.478 300.35 169.518 302.42 170.308L302.67 170.878C302.13 187.058 301.82 203.248 301.23 219.428C300.85 229.408 299.8 239.858 294.66 248.648C289.15 257.738 278.89 262.768 268.74 264.668C253.78 267.478 238.49 267.668 223.34 268.498C158.13 271.458 92.7899 269.818 27.6799 265.338C22.4799 264.978 17.19 264.878 12.13 263.438C9.51 262.608 6.80996 261.278 5.32996 258.858C3.73996 255.688 3.64 252.068 3.25 248.608C1.86 229.728 1.12 210.818 0.130005 191.918C33.71 194.048 67.35 195.248 101 195.998C133.49 196.528 165.97 196.518 198.46 196.838C205.47 197.128 213.05 195.788 218.36 190.868C219.14 189.978 220.39 189.148 220.27 187.818C205.63 185.618 191.07 182.888 176.46 180.478C117.66 170.428 58.8299 160.468 0.039917 150.358C-0.030083 138.218 0.05 126.068 0 113.918L0.0100098 113.938Z" fill="white"/>
</svg>
