<svg width="48" height="48" viewBox="0 0 256 256" fill="none" xmlns="http://www.w3.org/2000/svg">
<rect width="256" height="256" fill="black"/>
<path d="M171.427 156V104H184.573V156H171.427ZM152 136.573V123.427H204V136.573H152Z" fill="white"/>
<path fill-rule="evenodd" clip-rule="evenodd" d="M67.1098 184.166C67.2597 183.146 68.4871 182.054 69.4883 181.438C74.3682 178.435 79.6694 176.037 84.2132 172.592C98.9308 161.435 107.654 146.746 108.131 127.666C108.266 122.248 106.212 120.895 101.52 123.006C87.9742 129.099 73.4079 125.526 65.6343 114.204C57.1569 101.854 58.3507 85.4121 68.508 74.6245C81.4825 60.846 102.831 60.4343 117.552 73.5925C126.371 81.4751 130.561 91.6532 131.607 103.229C135.109 142.013 115.049 173.98 78.5379 188.023C74.9242 189.412 71.2192 190.553 66.9975 192C66.9975 189.039 66.7586 186.557 67.1098 184.166Z" fill="white"/>
</svg>
