<svg width="48" height="48" viewBox="0 0 48 48" fill="none" xmlns="http://www.w3.org/2000/svg">
<rect width="48" height="48" fill="black"/>
<path fill-rule="evenodd" clip-rule="evenodd" d="M18.0947 18H30.0741C30.3503 18 30.5742 18.2239 30.5742 18.5002V20.6038H41.6596C41.9358 20.6038 42.0714 20.7809 41.9623 20.9994L38.5057 27.9241C38.3966 28.1426 38.0843 28.3198 37.808 28.3198H30.5742V30.4278C30.5742 30.7041 30.3503 30.928 30.0741 30.928H18.0947C17.8184 30.928 17.5945 30.7041 17.5945 30.4278V28.3198H6.34042C6.06417 28.3198 5.92865 28.1426 6.03772 27.9241L9.49428 20.9994C9.60335 20.7809 9.91572 20.6038 10.192 20.6038H17.5945V18.5002C17.5945 18.2239 17.8184 18 18.0947 18Z" fill="white"/>
</svg>
