<svg width="48" height="48" viewBox="0 0 48 48" fill="none" xmlns="http://www.w3.org/2000/svg">
<rect width="48" height="48" fill="black"/>
<path fill-rule="evenodd" clip-rule="evenodd" d="M24 28C26.0945 28 27.0827 26.8859 27.5862 26.4757C28.0896 26.0655 28.4997 25.7112 30.6626 25.7112C34.4103 25.6553 35.324 25.0586 35.324 25.0586C38.6616 24.9468 38.9039 24.2755 38.9039 24.2755C42.0177 24.0705 42.1855 23.5298 41.9059 23.5298C41.9059 23.5298 34.0934 23.94 28.7049 23.94C26.8403 23.94 26.2126 22.8726 24 22.8726C21.7376 22.8726 21.1597 23.94 19.2952 23.94C13.9066 23.94 6.09413 23.5298 6.09413 23.5298C5.81443 23.5298 5.98225 24.0705 9.09607 24.2755C9.09607 24.2755 9.33845 24.9468 12.676 25.0586C12.676 25.0586 13.5896 25.6553 17.3374 25.7112C19.5002 25.7112 19.9104 26.0655 20.4139 26.4757C20.9173 26.8859 21.9055 28 24 28Z" fill="white"/>
</svg>
