<svg width="48" height="48" viewBox="0 0 48 48" fill="none" xmlns="http://www.w3.org/2000/svg">
<rect width="48" height="48" fill="black"/>
<path d="M23.9805 9C24.9915 9.00001 28.3112 9.04831 29.7305 9.14453C31.3424 9.21672 33.8687 9.40885 35.2881 9.64941C38.1029 10.1306 41.3265 11.1416 41.8076 15.9531C41.9279 17.2522 41.9759 18.9602 42 20.8125C41.9519 23.8677 41.6873 25.937 41.543 27.3564C41.4467 28.3187 41.038 31.2782 40.5088 32.7939C39.787 34.8871 39.1371 35.4887 38.3672 36.1143C36.9718 37.2691 34.6618 37.6059 34.1807 37.7021C31.5822 38.1833 26.3135 38.2559 24.0039 38.2559C21.6701 38.2559 16.4254 38.1593 13.8271 37.7021C13.3458 37.6059 11.036 37.245 9.64062 36.1143C8.87084 35.4888 8.2217 34.8869 7.5 32.7939C6.97072 31.2782 6.56108 28.3428 6.46484 27.3564C6.32048 25.9129 6.05592 23.8677 6.00781 20.8125C5.98376 18.9842 6.00802 17.2762 6.15234 15.9531C6.63352 11.1414 9.85798 10.1306 12.6729 9.64941C14.0923 9.40889 16.6177 9.21672 18.2295 9.14453C19.649 9.0483 22.97 9 23.9805 9ZM23.9805 10.1553C22.561 10.1553 20.0583 10.2026 18.5186 10.2988C16.6179 10.3951 14.5971 10.5879 13.1055 10.8525C9.90565 11.4059 8.41362 12.9217 8.05273 15.9531C7.78811 17.9741 7.76421 21.7275 7.93262 24.0371C8.19724 27.8859 8.55797 30.1955 9.03906 31.8555C9.47209 33.2989 10.0017 34.2857 10.7715 34.9834C12.0707 36.1623 13.8516 36.4029 14.9102 36.5713C17.1717 36.9081 20.9732 37.0283 23.9805 37.0283C26.9635 37.0283 30.7883 36.9081 33.0498 36.5713C34.1084 36.4029 35.8893 36.1623 37.1885 34.9834C37.9583 34.2857 38.4879 33.323 38.9209 31.8555C39.402 30.1955 39.7387 27.886 40.0273 24.0371C40.1958 21.7035 40.1719 17.95 39.9072 15.9531C39.5223 12.9458 38.0299 11.4299 34.8301 10.8525C33.3385 10.5879 31.3175 10.3951 29.417 10.2988C27.9014 10.2026 25.3759 10.1312 23.9805 10.1553ZM33.4355 11.5264C33.9166 11.5504 34.3255 11.5984 34.7344 11.6465C34.7327 11.6737 34.2532 19.2551 34.0371 22.4492C33.8206 25.8415 33.4116 31.5189 33.0508 35.8252C33.0508 35.8252 32.3528 35.922 31.1982 35.9941C30.0092 36.0655 29.478 36.0664 29.4658 36.0664C28.9846 34.1658 28.3588 31.5429 27.6611 30.4121C27.0839 29.4983 26.2182 29.4022 25.7129 29.3301C24.9432 29.2098 24.2933 29.209 23.9805 29.209C23.6918 29.209 23.0179 29.2338 22.248 29.3301C21.7428 29.4023 20.8762 29.4979 20.2988 30.4121C19.6011 31.5429 19.0003 34.1658 18.4951 36.0664C18.4951 36.0664 17.9412 36.0663 16.7383 35.9941C15.5836 35.946 14.8857 35.8252 14.8857 35.8252C14.5249 31.5189 14.1159 25.8174 13.8994 22.4492C13.6833 19.2315 13.204 11.6756 13.2021 11.6465C13.611 11.5984 13.9959 11.5504 14.501 11.5264C14.8583 11.5025 15.664 11.478 15.6797 11.4775C16.4977 15.1585 16.8351 16.8431 17.5088 19.5137C18.1343 22.0638 18.6388 24.4457 19.5049 25.6006C20.3708 26.7792 21.5498 27.0199 22.3438 27.1162C22.7527 27.1643 23.066 27.1885 23.9561 27.1885C24.8462 27.1885 25.1594 27.1643 25.5684 27.1162C26.3623 27.02 27.5412 26.7793 28.4072 25.6006C29.2733 24.4458 29.7782 22.0638 30.4277 19.5137C31.1014 16.8672 31.4388 15.1585 32.2568 11.4775C32.2773 11.4781 33.0793 11.5026 33.4355 11.5264Z" fill="white"/>
</svg>
