<svg width="48" height="48" viewBox="0 0 596 596" fill="none" xmlns="http://www.w3.org/2000/svg">
<path d="M298 75C301.166 75 304.333 75.2992 307.499 75.8975C310.665 76.4957 313.756 77.2433 316.771 78.1406C322.049 79.9354 329.21 82.4781 338.257 85.7686C347.454 88.9094 357.556 92.4989 368.562 96.5371C379.72 100.575 390.801 104.614 401.808 108.652C412.965 112.691 423.143 116.429 432.34 119.869C441.537 123.309 448.775 126.151 454.052 128.395C463.55 132.283 470.712 136.77 475.537 141.855C480.512 146.941 483 155.242 483 166.758V335.914C483 356.105 480.136 373.829 474.406 389.085C468.677 404.191 459.253 418.325 446.136 431.486C433.169 444.648 415.755 457.959 393.893 471.42C372.181 484.881 345.192 499.986 312.927 516.737C310.062 518.233 307.273 519.28 304.559 519.878C301.995 520.626 299.809 521 298 521C296.191 521 293.929 520.626 291.215 519.878C288.652 519.28 285.938 518.233 283.073 516.737C251.562 498.939 224.875 483.235 203.013 469.625C181.301 456.015 163.811 442.853 150.543 430.14C137.426 417.277 127.851 403.443 121.82 388.636C115.94 373.679 113 356.105 113 335.914V166.758C113 155.242 115.488 146.941 120.463 141.855C125.438 136.621 132.6 132.134 141.948 128.395C147.225 126.301 154.463 123.534 163.66 120.094C172.857 116.504 182.959 112.691 193.966 108.652C205.123 104.465 216.205 100.426 227.212 96.5371C238.369 92.499 248.546 88.9094 257.743 85.7686C266.94 82.4781 274.178 79.9354 279.455 78.1406C282.47 77.2433 285.486 76.4957 288.501 75.8975C291.667 75.2992 294.834 75 298 75ZM346.247 186.325C316.874 159.849 274.11 160.592 248.081 188.469C227.681 210.318 225.302 243.597 242.303 268.572C258.025 291.667 287.436 298.832 314.56 286.528C316.74 285.539 318.478 285.021 319.829 284.885C321.157 284.751 321.982 284.993 322.533 285.379C323.095 285.772 323.652 286.508 324.051 287.903C324.403 289.134 324.599 290.769 324.601 292.868L324.589 293.796C323.678 330.53 307.065 358.794 278.866 380.354C274.562 383.645 269.874 386.455 265.025 389.2C260.214 391.924 255.184 394.617 250.395 397.59C249.3 398.268 248.074 399.213 247.057 400.3C246.083 401.34 245.08 402.745 244.846 404.35C244.135 409.228 244.606 414.454 244.606 420V422.808L247.26 421.891C255.387 419.081 262.7 416.806 269.77 414.066C341.593 386.206 381.117 322.688 374.227 245.748C372.159 222.655 363.843 202.187 346.247 186.325Z" fill="white"/>
</svg>
